<?xml version="1.0" encoding="UTF-8" standalone="no"?>
<!-- Uploaded to: SVG Repo, www.svgrepo.com, Generator: SVG Repo Mixer Tools -->

<svg
   width="800px"
   height="800px"
   viewBox="2 2 20 20"
   fill="none"
   version="1.1"
   id="svg1122"
   sodipodi:docname="email-icon.png"
   inkscape:version="1.1.2 (0a00cf5339, 2022-02-04)"
   xmlns:inkscape="http://www.inkscape.org/namespaces/inkscape"
   xmlns:sodipodi="http://sodipodi.sourceforge.net/DTD/sodipodi-0.dtd"
   xmlns="http://www.w3.org/2000/svg"
   xmlns:svg="http://www.w3.org/2000/svg">
  <defs
     id="defs1126" />
  <sodipodi:namedview
     id="namedview1124"
     pagecolor="#ffffff"
     bordercolor="#666666"
     borderopacity="1.0"
     inkscape:pageshadow="2"
     inkscape:pageopacity="0.0"
     inkscape:pagecheckerboard="0"
     showgrid="false"
     inkscape:zoom="0.89875"
     inkscape:cx="176.91238"
     inkscape:cy="400"
     inkscape:window-width="1920"
     inkscape:window-height="1016"
     inkscape:window-x="0"
     inkscape:window-y="0"
     inkscape:window-maximized="1"
     inkscape:current-layer="svg1122" />
  <path
     fill-rule="evenodd"
     clip-rule="evenodd"
     d="M22 12C22 17.5228 17.5228 22 12 22C6.47715 22 2 17.5228 2 12C2 6.47715 6.47715 2 12 2C17.5228 2 22 6.47715 22 12ZM7.005 9C7.005 8.45 7.45 8 8 8H16C16.55 8 17 8.45 17 9V15C17 15.55 16.55 16 16 16H8C7.45 16 7 15.55 7 15L7.005 9ZM12 12.5L8.00001 9.99997V15H16V9.99997L12 12.5ZM12 11.5L8.00001 9.00001H16L12 11.5Z"
     fill="#000000"
     id="path1120"
     style="fill:#0c4a6e;fill-opacity:1" />
</svg>
